{"title":"Jackass.3.5.2011.BDRip.XVID.AC3.HQ.Hive-CM8","uid":6493581,"size":1569292116,"categoryP":"video","categoryS":"movies","magnet":"?xt=urn:btih:4ff7b5d6d9a4fe104b0a8968dd5cf8451fb5ca24&amp;dn=Jackass.3.5.2011.BDRip.XVID.AC3.HQ.Hive-CM8&amp;tr=udp%3A%2F%2Ftracker.openbittorrent.com%3A80&amp;tr=udp%3A%2F%2Fopen.demonii.com%3A1337&amp;tr=udp%3A%2F%2Ftracker.coppersurfer.tk%3A6969&amp;tr=udp%3A%2F%2Fexodus.desync.com%3A6969","seeders":0,"leechers":1,"uploader":"TvTeam","files":6,"time":1308986077,"description":". \n  &lt;a href=&quot;\nhttp://www.torrenting.com/&quot; rel=&quot;nofollow&quot; target=&quot;_NEW&quot;&gt;\nhttp://www.torrenting.com/&lt;/a&gt;        :     Greatest Movie Tracker on The Net!!!\n &lt;a href=&quot;\nhttp://www.Torrenting.com&quot; rel=&quot;nofollow&quot; target=&quot;_NEW&quot;&gt;\nhttp://www.Torrenting.com&lt;/a&gt;          :     Once &amp; For all ;)\n\n\n               www . Torrenting . Com \n\n(((((((((((((= Enjoy No RAR releases =))))))))))))))))))))\n\n\n...................................NFO:....................................\n\n.[img]http://img863.imageshack.us/img863/4637/jackass35bluray.jpg[/img]\n\n\n[color=blue][size=5][b]Jackass.3.5.2011.BDRip.XVID.AC3.HQ.Hive-CM8[/b][/size][/color]\n\n\n[b]Thx Hive\n\n\nCM8 Doing It Right The First Time :D\n\n\nSource Bluray\n\nVideo: 720x400 @bitrate 2000 2pass\nAudio: English DTS to AC3 5.1 @448\nSample: yes included\nSubs: yes english in srt /subs[/b]\n\n\n[url]http://www.imdb.com/title/tt1753968/[/url]\n\n\nGeneral\nComplete name                    : Jackass.3.5.2011.BDRip.XVID.AC3.HQ.Hive-CM8.avi\nFormat                           : AVI\nFormat/Info                      : Audio Video Interleave\nFile size                        : 1.45 GiB\nDuration                         : 1h 24mn\nOverall bit rate                 : 2 452 Kbps\nWriting application              : Nandub v1.0rc2\nWriting library                  : Nandub build 1853/release\n\nVideo\nID                               : 0\nFormat                           : MPEG-4 Visual\nFormat profile                   : Advanced Simple@L5\nFormat settings, BVOP            : 1\nFormat settings, QPel            : Yes\nFormat settings, GMC             : No warppoints\nFormat settings, Matrix          : Default (H.263)\nMuxing mode                      : Packed bitstream\nCodec ID                         : XVID\nCodec ID/Hint                    : XviD\nDuration                         : 1h 24mn\nBit rate                         : 1 995 Kbps\nWidth                            : 720 pixels\nHeight                           : 400 pixels\nDisplay aspect ratio             : 16:9\nFrame rate                       : 23.976 fps\nColor space                      : YUV\nChroma subsampling               : 4:2:0\nBit depth                        : 8 bits\nScan type                        : Progressive\nCompression mode                 : Lossy\nBits/(Pixel*Frame)               : 0.289\nStream size                      : 1.18 GiB (81%)\nWriting library                  : XviD 1.2.1 (UTC 2008-12-04)\n\nAudio\nID                               : 1\nFormat                           : AC-3\nFormat/Info                      : Audio Coding 3\nMode extension                   : CM (complete main)\nCodec ID                         : 2000\nDuration                         : 1h 24mn\nBit rate mode                    : Constant\nBit rate                         : 448 Kbps\nChannel(s)                       : 6 channels\nChannel positions                : Front: L C R, Side: L R, LFE\nSampling rate                    : 48.0 KHz\nBit depth                        : 16 bits\nCompression mode                 : Lossy\nStream size                      : 272 MiB (18%)\nAlignment                        : Split accross interleaves\nInterleave, duration             : 42 ms (1.00 video frame)\nInterleave, preload duration     : 500 ms\n\n\nJason Acua       ...    Himself\nRyan Dunn         ...    Himself\nDave England      ...    Himself\nJohnny Knoxville  ...    Himself\nPreston Lacy      ...    Himself\nBam Margera       ...    Himself\nEhren McGhehey    ...    Himself\nChris Pontius     ...    Himself\nSteve-O           ...    Himself\n\n\nFollowing the release of Jackass 3D, it was evident there was enough footage for\na second film, and so Jackass 3.5 was born. Once again, the guys are pulling off\nridiculous stunts, and putting their bodies though hell, all for the sake of a\ngood laugh.\n\n\n[img]http://img692.imageshack.us/img692/2456/jajjajajajajaa.png[/img]\n[img]http://img89.imageshack.us/img89/8180/31738739.png[/img]\n[img]http://img546.imageshack.us/img546/2779/jajac.png[/img]\n[img]http://img94.imageshack.us/img94/5419/jajjaa.png[/img]\n[img]http://img825.imageshack.us/img825/7295/jajjajaa.png[/img]\n[img]http://img828.imageshack.us/img828/325/jajjajajaa.png[/img]\n[img]http://img30.imageshack.us/img30/7799/jajjajajajaa.png[/img]\n\n\nHiRes Label &amp; DVD Cover:\n\n[img]http://img808.imageshack.us/img808/4526/hireslabel.jpg[/img]\n\n[img]http://img823.imageshack.us/img823/1048/hirescover.jpg[/img]\n\n\nGreetz\n\nViSiON,SANTi,MAGNET,THC,T0XiC,iNK,LKRG,IMAGiNE,WBZ,FLAWL3SS,NOVA\nD2U,Vik,Rapeseed,SAFC,goldadvance,MEMORY100,KaN1vE,Unevano,\nPinnz,Wayne,Mr Hive and all P2P groups \nGreat Work Guys :D\n\nFYS\n\n&lt;a class=&quot;__cf_email__&quot; href=&quot;/cdn-cgi/l/email-protection&quot; data-cfemail=&quot;4b0806730b233e3823262a222765282426&quot;&gt;[email&amp;#160;protected]&lt;/a&gt;&lt;script cf-hash='f9e31' type=&quot;text/javascript&quot;&gt;\n/* &lt;![CDATA[ */!function(){try{var t=&quot;currentScript&quot;in document?document.currentScript:function(){for(var t=document.getElementsByTagName(&quot;script&quot;),e=t.length;e--;)if(t[e].getAttribute(&quot;cf-hash&quot;))return t[e]}();if(t&amp;&amp;t.previousSibling){var e,r,n,i,c=t.previousSibling,a=c.getAttribute(&quot;data-cfemail&quot;);if(a){for(e=&quot;&quot;,r=parseInt(a.substr(0,2),16),n=2;a.length-n;n+=2)i=parseInt(a.substr(n,2),16)^r,e+=String.fromCharCode(i);e=document.createTextNode(e),c.parentNode.replaceChild(e,c)}}}catch(u){}}();/* ]]&gt; */&lt;/script&gt;","torrent":{"xt":"urn:btih:4ff7b5d6d9a4fe104b0a8968dd5cf8451fb5ca24","amp;dn":"Jackass.3.5.2011.BDRip.XVID.AC3.HQ.Hive-CM8","amp;tr":["udp%3A%2F%2Ftracker.openbittorrent.com%3A80","udp%3A%2F%2Fopen.demonii.com%3A1337","udp%3A%2F%2Ftracker.coppersurfer.tk%3A6969","udp%3A%2F%2Fexodus.desync.com%3A6969"],"infoHash":"4ff7b5d6d9a4fe104b0a8968dd5cf8451fb5ca24","infoHashBuffer":{"type":"Buffer","data":[79,247,181,214,217,164,254,16,75,10,137,104,221,92,248,69,31,181,202,36]},"announce":[],"urlList":[]}}